<svg xmlns="http://www.w3.org/2000/svg" version="1.1" xmlns:xlink="http://www.w3.org/1999/xlink" xmlns:svgjs="http://svgjs.dev/svgjs" width="2000" height="1500" viewBox="0 0 2000 1500"><rect width="2000" height="1500" fill="#ffffff"></rect><g transform="matrix(0.75,0,0,0.75,249.090909090909,282.7536437246963)"><svg viewBox="0 0 396 247" data-background-color="#ffffff" preserveAspectRatio="xMidYMid meet" height="1247" width="2000" xmlns="http://www.w3.org/2000/svg" xmlns:xlink="http://www.w3.org/1999/xlink"><g id="tight-bounds" transform="matrix(1,0,0,1,0.2400000000000091,-0.09999999999999432)"><svg viewBox="0 0 395.52 247.2" height="247.2" width="395.52"><g><svg viewBox="0 0 395.52 247.2" height="247.2" width="395.52"><g transform="matrix(1,0,0,1,0,103.3144223893478)"><svg viewBox="0 0 395.52 40.5711552213044" height="40.5711552213044" width="395.52"><g><svg viewBox="0 0 395.52 40.5711552213044" height="40.5711552213044" width="395.52"><g><svg viewBox="0 0 395.52 40.5711552213044" height="40.5711552213044" width="395.52"><g><svg viewBox="0 0 395.52 40.5711552213044" height="40.5711552213044" width="395.52"><g id="textblocktransform"><svg viewBox="0 0 395.52 40.5711552213044" height="40.5711552213044" width="395.52" id="textblock"><g><svg viewBox="0 0 395.52 40.5711552213044" height="40.5711552213044" width="395.52"><g transform="matrix(1,0,0,1,0,0)"><svg width="395.52" viewBox="-0.5 -38.3 406.52 42.599999999999994" height="40.5711552213044" data-palette-color="#ffffff"><path d="M3.5 0L3.5-33.85Q3.85-33.85 5.1-33.88 6.35-33.9 7.9-33.9 9.45-33.9 11-33.93 12.55-33.95 13.55-33.95L13.55-33.95Q19.65-33.95 22.55-31.23 25.45-28.5 25.45-23.75L25.45-23.75Q25.45-21.45 24.65-19.53 23.85-17.6 22.28-16.2 20.7-14.8 18.38-14.03 16.05-13.25 12.95-13.25L12.95-13.25 9.45-13.25 9.45 0 3.5 0ZM9.45-29.65L9.45-17.7 13.3-17.7Q16.45-17.7 17.8-19.35 19.15-21 19.15-23.55L19.15-23.55Q19.15-24.7 18.85-25.8 18.55-26.9 17.82-27.78 17.1-28.65 15.88-29.18 14.65-29.7 12.8-29.7L12.8-29.7Q11.7-29.7 10.88-29.7 10.05-29.7 9.45-29.65L9.45-29.65ZM42.8-34.3Q46.55-34.3 49.2-33.1 51.85-31.9 53.57-29.7 55.3-27.5 56.1-24.33 56.9-21.15 56.9-17.2L56.9-17.2Q56.9-13.3 56.02-10.08 55.15-6.85 53.32-4.55 51.5-2.25 48.72-0.98 45.95 0.3 42.15 0.3L42.15 0.3Q38.4 0.3 35.72-0.83 33.05-1.95 31.32-4.13 29.6-6.3 28.8-9.4 28-12.5 28-16.5L28-16.5Q28-20.4 28.87-23.68 29.75-26.95 31.57-29.33 33.4-31.7 36.2-33 39-34.3 42.8-34.3L42.8-34.3ZM42.1-29.7Q39.9-29.7 38.45-28.73 37-27.75 36.1-26.05 35.2-24.35 34.82-22.05 34.45-19.75 34.45-17.05L34.45-17.05Q34.45-14.5 34.8-12.2 35.15-9.9 36.07-8.15 37-6.4 38.62-5.35 40.25-4.3 42.85-4.3L42.85-4.3Q45-4.3 46.47-5.25 47.95-6.2 48.85-7.85 49.75-9.5 50.12-11.78 50.5-14.05 50.5-16.7L50.5-16.7Q50.5-19.25 50.15-21.6 49.8-23.95 48.87-25.75 47.95-27.55 46.32-28.63 44.7-29.7 42.1-29.7L42.1-29.7ZM72.39-34.3L72.39-34.3Q74.14-34.3 75.75-33.98 77.34-33.65 78.67-33.23 80-32.8 80.92-32.35 81.84-31.9 82.19-31.65L82.19-31.65 79.75-27.35 79.09-27.7Q78.44-28.05 77.39-28.5 76.34-28.95 75.09-29.3 73.84-29.65 72.69-29.65L72.69-29.65Q70.89-29.65 69.57-28.8 68.24-27.95 68.24-26.15L68.24-26.15Q68.24-23.9 69.69-22.48 71.14-21.05 74.25-19.85L74.25-19.85Q76.25-19.05 77.82-18.18 79.39-17.3 80.5-16.15 81.59-15 82.17-13.5 82.75-12 82.75-9.9L82.75-9.9Q82.75-8 82.02-6.15 81.3-4.3 79.87-2.88 78.44-1.45 76.34-0.58 74.25 0.3 71.5 0.3L71.5 0.3Q69.55 0.3 67.8-0.1 66.05-0.5 64.62-1.03 63.19-1.55 62.17-2.1 61.14-2.65 60.64-2.95L60.64-2.95 62.74-7.55 63.64-7.05Q64.55-6.55 65.84-5.95 67.14-5.35 68.59-4.85 70.05-4.35 71.09-4.35L71.09-4.35Q73.75-4.35 75.05-5.65 76.34-6.95 76.34-9.3L76.34-9.3Q76.34-10.4 76-11.23 75.64-12.05 75-12.65 74.34-13.25 73.42-13.73 72.5-14.2 71.34-14.65L71.34-14.65Q69.09-15.6 67.32-16.55 65.55-17.5 64.3-18.73 63.04-19.95 62.39-21.53 61.74-23.1 61.74-25.3L61.74-25.3Q61.74-27.15 62.54-28.78 63.34-30.4 64.74-31.63 66.14-32.85 68.09-33.58 70.05-34.3 72.39-34.3ZM93.49 0L93.49-12.95 82.99-33.85 89.44-33.85 96.54-18.5 103.79-33.85 110.09-33.85 99.44-12.7 99.44 0 93.49 0ZM106.34 0L119.34-33.85 124.04-33.85 137.09 0 130.74 0 127.64-8.85 115.44-8.85 112.24 0 106.34 0ZM117.04-13.25L126.09-13.25Q124.49-17.75 123.34-21.43 122.19-25.1 121.59-27.2L121.59-27.2Q120.89-24.95 119.74-21.3 118.59-17.65 117.04-13.25L117.04-13.25ZM160.49-16.15L160.34-33.85 166.29-33.85 166.29 0.05 161.34 0.05 149.94-17.75Q148.99-19.2 147.86-21.03 146.74-22.85 145.74-24.4L145.74-24.4Q145.89-22.8 146.01-21.05 146.14-19.3 146.14-17.7L146.14-17.7 146.29 0 140.34 0 140.34-33.95 144.99-33.95 156.74-16.35Q157.74-14.9 158.76-13.28 159.79-11.65 160.79-10.15L160.79-10.15Q160.69-11.75 160.59-13.38 160.49-15 160.49-16.15L160.49-16.15ZM173.29 0L173.29-33.85Q173.64-33.85 174.79-33.88 175.94-33.9 177.39-33.9 178.84-33.9 180.39-33.93 181.94-33.95 183.09-33.95L183.09-33.95Q191.59-33.95 195.69-29.73 199.79-25.5 199.79-17.15L199.79-17.15Q199.79-8.8 195.59-4.35 191.39 0.1 182.44 0.1L182.44 0.1Q180.89 0.1 179.41 0.08 177.94 0.05 176.71 0.05 175.49 0.05 174.59 0.03 173.69 0 173.29 0L173.29 0ZM182.39-29.5Q181.24-29.5 180.46-29.48 179.69-29.45 179.24-29.45L179.24-29.45 179.24-4.4Q179.79-4.35 180.66-4.35 181.54-4.35 183.19-4.35L183.19-4.35Q188.44-4.35 190.89-7.43 193.34-10.5 193.34-16.6L193.34-16.6Q193.34-19.5 192.76-21.88 192.19-24.25 190.86-25.95 189.54-27.65 187.46-28.58 185.39-29.5 182.39-29.5L182.39-29.5ZM204.93-33.85L210.83-33.85 210.83-12.9Q210.83-8.25 212.78-6.28 214.73-4.3 218.08-4.3L218.08-4.3Q221.48-4.3 223.11-6.58 224.73-8.85 224.73-12.9L224.73-12.9 224.73-33.85 230.68-33.85 230.68-12.45Q230.68-9.85 230.01-7.55 229.33-5.25 227.78-3.5 226.23-1.75 223.68-0.73 221.13 0.3 217.43 0.3L217.43 0.3Q213.88 0.3 211.51-0.73 209.13-1.75 207.66-3.5 206.18-5.25 205.56-7.55 204.93-9.85 204.93-12.45L204.93-12.45 204.93-33.85ZM249.93 0L249.93-33.85 255.88-33.85 255.88-4.5 268.53-4.5 268.53 0 249.93 0ZM269.78 0L282.78-33.85 287.48-33.85 300.53 0 294.18 0 291.08-8.85 278.88-8.85 275.68 0 269.78 0ZM280.48-13.25L289.53-13.25Q287.93-17.75 286.78-21.43 285.63-25.1 285.03-27.2L285.03-27.2Q284.33-24.95 283.18-21.3 282.03-17.65 280.48-13.25L280.48-13.25ZM323.92-16.15L323.77-33.85 329.72-33.85 329.72 0.05 324.77 0.05 313.37-17.75Q312.42-19.2 311.3-21.03 310.17-22.85 309.17-24.4L309.17-24.4Q309.32-22.8 309.45-21.05 309.57-19.3 309.57-17.7L309.57-17.7 309.72 0 303.77 0 303.77-33.95 308.42-33.95 320.17-16.35Q321.17-14.9 322.2-13.28 323.22-11.65 324.22-10.15L324.22-10.15Q324.12-11.75 324.02-13.38 323.92-15 323.92-16.15L323.92-16.15ZM346.47-34.3L346.47-34.3Q348.22-34.3 349.82-33.98 351.42-33.65 352.75-33.23 354.07-32.8 355-32.35 355.92-31.9 356.27-31.65L356.27-31.65 353.82-27.35 353.17-27.7Q352.52-28.05 351.47-28.5 350.42-28.95 349.17-29.3 347.92-29.65 346.77-29.65L346.77-29.65Q344.97-29.65 343.65-28.8 342.32-27.95 342.32-26.15L342.32-26.15Q342.32-23.9 343.77-22.48 345.22-21.05 348.32-19.85L348.32-19.85Q350.32-19.05 351.9-18.18 353.47-17.3 354.57-16.15 355.67-15 356.25-13.5 356.82-12 356.82-9.9L356.82-9.9Q356.82-8 356.1-6.15 355.37-4.3 353.95-2.88 352.52-1.45 350.42-0.58 348.32 0.3 345.57 0.3L345.57 0.3Q343.62 0.3 341.87-0.1 340.12-0.5 338.7-1.03 337.27-1.55 336.25-2.1 335.22-2.65 334.72-2.95L334.72-2.95 336.82-7.55 337.72-7.05Q338.62-6.55 339.92-5.95 341.22-5.35 342.67-4.85 344.12-4.35 345.17-4.35L345.17-4.35Q347.82-4.35 349.12-5.65 350.42-6.95 350.42-9.3L350.42-9.3Q350.42-10.4 350.07-11.23 349.72-12.05 349.07-12.65 348.42-13.25 347.5-13.73 346.57-14.2 345.42-14.65L345.42-14.65Q343.17-15.6 341.4-16.55 339.62-17.5 338.37-18.73 337.12-19.95 336.47-21.53 335.82-23.1 335.82-25.3L335.82-25.3Q335.82-27.15 336.62-28.78 337.42-30.4 338.82-31.63 340.22-32.85 342.17-33.58 344.12-34.3 346.47-34.3ZM362.07 0L362.07-33.85 368.02-33.85 368.02 0 362.07 0ZM371.27 0L384.27-33.85 388.97-33.85 402.02 0 395.67 0 392.57-8.85 380.37-8.85 377.17 0 371.27 0ZM381.97-13.25L391.02-13.25Q389.42-17.75 388.27-21.43 387.12-25.1 386.52-27.2L386.52-27.2Q385.82-24.95 384.67-21.3 383.52-17.65 381.97-13.25L381.97-13.25Z" opacity="1" transform="matrix(1,0,0,1,0,0)" fill="#ffffff" class="wordmark-text-0" data-fill-palette-color="primary" id="text-0"></path></svg></g></svg></g></svg></g></svg></g></svg></g></svg></g></svg></g></svg></g><defs></defs></svg><rect width="395.52" height="247.2" fill="none" stroke="none" visibility="hidden"></rect></g></svg></g></svg>